<?xml version="1.0" encoding="UTF-8"?>
<!DOCTYPE svg PUBLIC "-//W3C//DTD SVG 1.1//EN" "http://www.w3.org/Graphics/SVG/1.1/DTD/svg11.dtd">
<!-- Creator: CorelDRAW -->
<svg xmlns="http://www.w3.org/2000/svg" xml:space="preserve" width="512px" height="512px" style="shape-rendering:geometricPrecision; text-rendering:geometricPrecision; image-rendering:optimizeQuality; fill-rule:evenodd; clip-rule:evenodd"
viewBox="0 0 512 512"
 xmlns:xlink="http://www.w3.org/1999/xlink">
 <defs>
  <style type="text/css">
   <![CDATA[
    .fil0 {fill:url(#id0)}
   ]]>
  </style>
  <linearGradient id="id0" gradientUnits="userSpaceOnUse" x1="27.4958" y1="256" x2="484.505" y2="256">
   <stop offset="0" style="stop-color:#990000"/>
   <stop offset="1" style="stop-color:red"/>
  </linearGradient>
 </defs>
 <g id="Layer_x0020_1">
  <metadata id="CorelCorpID_0Corel-Layer"/>
  <path class="fil0" d="M240.378 436.724l0 -86.3328c-20.6175,-2.64529 -39.668,-10.3887 -55.8241,-21.9393l0 62.5263c-0.416693,4.1658 -3.74939,7.49877 -7.91547,7.49877l-45.3044 0c-3.4645,17.627 -18.9207,30.8282 -37.5987,30.8282 -21.2465,0 -38.327,-17.0804 -38.327,-38.327 0,-21.2465 17.0804,-38.327 38.327,-38.327 18.678,0 34.1342,13.2012 37.5987,30.8282l38.2224 0 0 -67.6573c-22.6125,-22.3226 -36.6608,-53.3367 -36.6608,-87.7337 0,-68.3221 55.4077,-123.313 123.313,-123.313 67.9054,0 123.313,55.4077 123.313,123.313 0,33.9786 -13.8728,64.8292 -36.2444,87.1719l0 68.2192 37.389 0c3.4645,-17.627 18.9207,-30.8282 37.5987,-30.8282 21.2465,0 38.327,17.0804 38.327,38.327 0.000283465,21.2465 -17.0804,38.327 -38.327,38.327 -18.678,0 -34.1342,-13.2012 -37.5987,-30.8282l-44.8878 0c-4.16608,0 -7.49877,-3.33269 -7.49877,-7.49877l0 -62.9476c-20.5333,14.8615 -45.7515,23.5536 -72.9045,23.36l0 85.3078c17.6267,3.45912 30.8279,18.8708 30.8279,37.1829 -0.41641,21.2465 -17.4969,38.327 -38.3267,38.327 -20.8298,0 -37.9106,-17.0804 -37.9106,-38.327 0,-18.265 13.1335,-33.6461 30.4118,-37.1574zm6.76148 -100.285c1.1948,-0.11452 1.48422,0.0204095 2.53871,0.17915 2.16085,0.130394 4.33758,0.201543 6.53074,0.201543 59.8059,0 108.732,-48.6972 108.732,-108.732 0,-59.9902 -48.742,-108.732 -108.732,-108.732 -59.9902,0 -108.732,48.742 -108.732,108.732 0,30.4781 12.5864,58.0493 32.8326,77.8022 1.39096,0.664724 2.53956,1.74472 3.28961,3.08296 17.1513,15.4091 39.217,25.4509 63.5406,27.466zm229.867 -62.9422c-4.16608,0 -7.49877,-3.33269 -7.49877,-7.49877l0 -68.7385 -43.3261 -2.49959c-3.33269,0 -5.83228,-2.49959 -6.66567,-5.41587 -4.16608,-17.9138 -11.2482,-34.5776 -20.8298,-49.5751 -1.66649,-2.91628 -1.2498,-6.24898 0.833102,-8.74857l29.162 -32.4947 -43.3264 -43.3264 -32.4947 29.162c-2.49959,2.0829 -5.83228,2.49959 -8.74857,0.833102 -15.4142,-9.58167 -32.078,-16.664 -49.5751,-20.8298 -3.33269,-0.833102 -5.41587,-3.33269 -5.41587,-6.66567l-2.08318 -43.3261 -61.6564 0 -2.49959 43.3261c0,3.33269 -2.49959,5.83228 -5.41587,6.66567 -17.0804,4.16608 -33.7445,11.2482 -49.5751,20.8298 -2.91628,1.66649 -6.24898,1.2498 -8.74857,-0.833102l-32.4947 -29.162 -43.3264 43.7428 29.162 32.4947c2.0829,2.49959 2.49959,5.83228 0.833102,8.74857 -9.16526,14.5809 -16.2473,31.2449 -20.8298,49.5751 -0.833102,3.33269 -3.33269,5.41587 -6.66567,5.41587l-43.3261 2.49959 0 68.7385c0,4.16608 -3.33269,7.49877 -7.49877,7.49877 -4.16608,0 -7.49877,-3.33269 -7.49877,-7.49877l0 -75.8205c0,-3.74939 2.91628,-7.08208 7.08208,-7.08208l44.5759 -2.49959c4.16608,-15.8306 10.4151,-30.4118 18.3302,-43.7428l-29.9951 -33.3278c-2.49959,-2.91628 -2.49959,-7.08208 0.416693,-9.99836l53.7415 -53.7415c2.91628,-2.91628 7.08208,-2.91628 9.99836,-0.416693l33.3278 29.9951c13.7477,-7.91547 28.7453,-14.1644 43.7428,-18.3302l2.49959 -44.5759c0.416693,-3.74939 3.33269,-7.08208 7.08208,-7.08208l75.4044 -0.000283465c3.74939,0 7.08208,2.91628 7.08208,7.08208l2.91628 44.5762c14.9975,4.16608 29.9951,10.4151 43.7428,18.3302l33.3278 -29.9951c2.91628,-2.49959 7.08208,-2.49959 9.99836,0.416693l53.3248 53.3248c2.91628,2.91628 2.91628,7.08208 0.416693,9.99836l-29.9951 33.3278c7.91518,13.3313 14.1642,28.3289 18.3302,43.7428l44.5759 2.49959c3.74939,0.416693 7.08208,3.33269 7.08208,7.08208l0 75.4041c0.000283465,4.58277 -3.33269,7.91547 -7.49849,7.91547zm-229.129 177.471c-12.9146,0 -23.3294,10.4151 -23.3294,23.3294 0,12.9146 10.4151,23.7461 23.3294,23.7461 12.9146,0 23.7458,-10.4151 23.7458,-23.7461 -0.41641,-12.9144 -10.8312,-23.3294 -23.7458,-23.3294zm170.389 -83.3199c-11.8035,0 -21.8653,8.70066 -23.5094,20.3757 0.384378,0.904819 0.596693,1.9029 0.596693,2.95398 0,1.07376 -0.249732,2.09169 -0.69052,3.01181 1.28466,11.738 11.1762,21.1507 23.6032,21.1507 12.9146,0 23.7461,-10.4151 23.7461,-23.7461 0,-13.3311 -10.4148,-23.7461 -23.7461,-23.7461zm-324.53 0c-12.9146,0 -23.7461,10.4151 -23.7461,23.7461 0,12.9146 10.4151,23.7461 23.7461,23.7461 13.3311,0 23.7461,-10.4151 23.7461,-23.7461 0,-13.3311 -10.4151,-23.7461 -23.7461,-23.7461z"/>
 </g>
</svg>
